<svg xmlns="http://www.w3.org/2000/svg" viewBox="0 0 23.98 23.98"><defs><style>.cls-1{fill:#fbbb00;}.cls-2{fill:#518ef8;}.cls-3{fill:#28b446;}.cls-4{fill:#f14336;}</style></defs><title>Asset 3</title><g id="Layer_2" data-name="Layer 2"><g id="discovery"><path class="cls-1" d="M5.31,14.49l-.83,3.12-3.05.06a12,12,0,0,1-.09-11.2h0L4.06,7l1.19,2.7a7.16,7.16,0,0,0,.07,4.82Z"/><path class="cls-2" d="M23.77,9.75A12,12,0,0,1,19.5,21.34h0l-3.42-.17-.48-3a7.15,7.15,0,0,0,3.07-3.65H12.25V9.75H23.77Z"/><path class="cls-3" d="M19.5,21.34h0A12,12,0,0,1,1.43,17.67l3.89-3.18a7.13,7.13,0,0,0,10.28,3.65Z"/><path class="cls-4" d="M19.64,2.76,15.76,5.94A7.13,7.13,0,0,0,5.25,9.67L1.34,6.48h0a12,12,0,0,1,18.3-3.72Z"/></g></g></svg>