<?xml version="1.0" encoding="utf-8"?>
<!-- Generator: Adobe Illustrator 20.1.0, SVG Export Plug-In . SVG Version: 6.00 Build 0)  -->
<svg version="1.1" id="Laag_1" xmlns="http://www.w3.org/2000/svg" xmlns:xlink="http://www.w3.org/1999/xlink" x="0px" y="0px"
	 viewBox="0 0 22 22" style="enable-background:new 0 0 22 22;" xml:space="preserve">
<style type="text/css">
	.st0{fill:#544476;}
</style>
<path class="st0" d="M11,7c-2.2,0-4,1.8-4,4s1.8,4,4,4s4-1.8,4-4S13.2,7,11,7z M19.9,10c-0.5-4.2-3.8-7.5-7.9-7.9V0h-2v2.1
	C5.8,2.5,2.5,5.8,2.1,10H0v2h2.1c0.5,4.2,3.8,7.5,7.9,7.9V22h2v-2.1c4.2-0.5,7.5-3.8,7.9-7.9H22v-2H19.9z M11,18c-3.9,0-7-3.1-7-7
	s3.1-7,7-7s7,3.1,7,7S14.9,18,11,18z"/>
</svg>
