<svg id="Layer_1" data-name="Layer 1" xmlns="http://www.w3.org/2000/svg" viewBox="0 0 288 471.72"><defs><style>.cls-1{opacity:0.12;}.cls-2{fill:#f5d6a8;}.cls-3{fill:#212121;}.cls-4{opacity:0.54;}.cls-5{fill:#42a5f5;}.cls-6{fill:#221f1f;}.cls-7,.cls-9{fill:#fff;}.cls-8{fill:none;}.cls-9{opacity:0.08;}.cls-10{fill:#5d4037;}</style></defs><title>macotte_charlie</title><ellipse class="cls-1" cx="158.77" cy="445.76" rx="124.94" ry="25.97"/><ellipse class="cls-2" cx="132.36" cy="438.04" rx="11.34" ry="6.37"/><ellipse class="cls-2" cx="171.09" cy="438.04" rx="11.34" ry="6.37"/><path class="cls-2" d="M159.12,430.81s-2,20.7,3.67,32.1c0,0,10.76-2.1,15.51,0,0,0,5.49-14.11,4.65-29.09S159.12,430.81,159.12,430.81Z" transform="translate(0 -28.21)"/><path class="cls-2" d="M140.83,462.91s6.78-22.81,3.39-35.33l-24.33,1.54s-2.21,19.93,4.27,32.83Z" transform="translate(0 -28.21)"/><path class="cls-3" d="M186.56,377.84s1.56,41.07,7.11,48.34c0,0-3.09,12-22.53,10.68,0,0-16.36-2-18.52-12.5,0,0,3.7-8.18,2.16-20.23s-5.66-4.43-5.66-4.43-1.83,3.33-.67,12.45c0,0,1.23,12.48-2.31,14.33,0,0-7.1,5.84-19.13,4.36,0,0-18.05-1.48-15.89-10.57,0,0,6.33-21.6,5.71-38.08C116.83,382.2,157.46,404.95,186.56,377.84Z" transform="translate(0 -28.21)"/><path class="cls-2" d="M199.38,369.57S221,394.42,229.16,392c.18-.05-1.85.43-1.22.82,6.7,4.19,11.95,10,18.14,14.85,7.25,5.67,16,12.24,24.88,15.12a11.36,11.36,0,0,0,7,.22c6.6-2.2,10.08-11.07,9.61-17.48-.38-5.06-2.85-9.77-6.09-13.67s-7.26-7.07-11.23-10.21c1.3,1,6.81-2.95,7.86-3.66,1.9-1.3,4.35-2.55,5.83-4.37,1.26-1.57,4.22-4,4-6-.36-3.6-4.67-6.28-8.08-5.07-11.17,3.94-16.6,11.28-28.39,8.13-5.81-1.55-16.37-8.73-22.35-6.81L218,352Z" transform="translate(0 -28.21)"/><path class="cls-1" d="M212.19,384.23s1.18-17.17,17-20.36C229.16,363.87,210.82,364.37,212.19,384.23Z" transform="translate(0 -28.21)"/><path class="cls-1" d="M229.16,392s4.57-19.68,22.35-21.29C251.52,370.68,235,373.63,229.16,392Z" transform="translate(0 -28.21)"/><path class="cls-2" d="M88.62,358.76S67,383.61,58.84,381.16c-.18-.05,1.85.43,1.22.82-6.7,4.19-11.95,10-18.14,14.85-7.25,5.67-16,12.24-24.88,15.12a11.36,11.36,0,0,1-7,.22C3.4,410-.09,401.11.39,394.7c.38-5.06,2.85-9.77,6.09-13.67s7.26-7.07,11.23-10.21c-1.3,1-6.81-2.95-7.86-3.66-1.9-1.3-4.35-2.55-5.83-4.37-1.26-1.57-4.22-4-4-6,.36-3.6,4.67-6.28,8.08-5.07,11.17,3.94,16.6,11.28,28.39,8.13,5.81-1.55,16.37-8.73,22.35-6.81l13.22-13.84Z" transform="translate(0 -28.21)"/><path class="cls-1" d="M75.81,373.42s-1.18-17.17-17-20.36C58.84,353.06,77.18,353.57,75.81,373.42Z" transform="translate(0 -28.21)"/><path class="cls-1" d="M58.84,381.16s-4.57-19.68-22.35-21.29C36.48,359.87,53,362.82,58.84,381.16Z" transform="translate(0 -28.21)"/><g id="shirt"><path class="cls-4" d="M116.83,382.2s41.4,32.87,71.7-7.64Z" transform="translate(0 -28.21)"/><path class="cls-5" d="M105.65,324.93s-4.87,41.21,11.18,57.26c0,0,45.06,31.48,74.07-9.88,0,0-21.19-19.32-11.57-59Z" transform="translate(0 -28.21)"/><path class="cls-5" d="M105.76,353.5l-11,9.18s-20.37-7.41-24.3-29.51l20.38-17.78,14.81,9.55S104.7,346.69,105.76,353.5Z" transform="translate(0 -28.21)"/><path class="cls-4" d="M105.71,324.93s-2.43,18.54.05,28.57Z" transform="translate(0 -28.21)"/><path class="cls-4" d="M190.9,372.32s-28.32-23.53-11.57-59Z" transform="translate(0 -28.21)"/><path class="cls-5" d="M194.53,375.48s-26.91-17.28-15.19-62.15l3.79-3.49S195,308.05,226,345.78Z" transform="translate(0 -28.21)"/></g><ellipse class="cls-2" cx="133.88" cy="170.87" rx="89.58" ry="132.58"/><path class="cls-3" d="M199.79,262.08c-9.28-10.05-15.47,0-15.47,0,7-4.64,10.83,1.55,10.83,5.41s-2.32,6.19-6.19,6.19-3.09.77-21.66-11.6c-17.51-11.67-31.57-1.33-33.11-.12-1.54-1.21-15.6-11.56-33.11.12-18.56,12.37-17.79,11.6-21.66,11.6s-6.19-2.32-6.19-6.19,3.87-10.05,10.83-5.41c0,0-6.19-10.05-15.47,0s.77,29.39,27.07,27.84c0,0,24.58,0,38.52-13,13.95,13,38.52,13,38.52,13C199,291.47,209.07,272.13,199.79,262.08Z" transform="translate(0 -28.21)"/><circle class="cls-6" cx="93.51" cy="166.86" r="26.17"/><circle class="cls-7" cx="84.78" cy="190.11" r="7.12" transform="translate(-109.59 87.42) rotate(-45)"/><circle class="cls-7" cx="98.17" cy="172.44" r="4.33"/><circle class="cls-6" cx="170.95" cy="166.92" r="26.17"/><circle class="cls-7" cx="159.69" cy="190.16" r="7.12" transform="translate(-87.69 140.41) rotate(-45)"/><circle class="cls-7" cx="182.38" cy="173.34" r="4.33"/><path class="cls-8" d="M171,172.61a23.1,23.1,0,1,0,23.1,23.1A23.13,23.13,0,0,0,171,172.61Z" transform="translate(0 -28.21)"/><circle class="cls-8" cx="205.19" cy="158.58" r="3.62"/><path class="cls-5" d="M161.89,28.21H107.75c-65,10.83-54.91,76.57-54.91,76.57l82-9.28,82,9.28S226.86,39,161.89,28.21Z" transform="translate(0 -28.21)"/><path class="cls-1" d="M134.82,87.76c-82,1.55-82,16.59-82,16.59a617.31,617.31,0,0,1,82-8.86,576.25,576.25,0,0,1,82,9.28S216.8,89.31,134.82,87.76Z" transform="translate(0 -28.21)"/><circle class="cls-9" cx="171.1" cy="167.82" r="24.34"/><path class="cls-10" d="M205.19,181.1a5.66,5.66,0,0,0-3.81,1.48V127h-7.25v49.1a30.32,30.32,0,1,0,7.25,19.65c0-.22,0-.45,0-.67h0v-4a5.69,5.69,0,1,0,3.81-9.91ZM171,218.82a23.1,23.1,0,1,1,23.1-23.1A23.13,23.13,0,0,1,171,218.82Zm34.16-28.4a3.62,3.62,0,1,1,3.62-3.62A3.63,3.63,0,0,1,205.19,190.42Z" transform="translate(0 -28.21)"/><path class="cls-5" d="M216,104.56S185.07,95.29,134,95.28h0c-51,0-81.95,9.28-81.95,9.28-32.48,8.51-30.16,21.66-30.16,21.66,0,11.6,30.16,20.11,30.16,20.11s4.64-24,82-24.75c29.15.29,48,3.88,60.1,8.24h0a64.25,64.25,0,0,1,8.65,3.75c12,6.31,13.21,12.74,13.21,12.74s30.16-8.51,30.16-20.11C246.16,126.22,248.48,113.07,216,104.56Z" transform="translate(0 -28.21)"/><circle class="cls-10" cx="214.69" cy="164.92" r="3.01"/><circle class="cls-10" cx="216.84" cy="174.73" r="3.01"/><circle class="cls-10" cx="216.84" cy="186.09" r="3.01"/><circle class="cls-10" cx="216.84" cy="198.79" r="3.01"/><circle class="cls-10" cx="216.84" cy="211.86" r="3.01"/><circle class="cls-10" cx="216.84" cy="223.22" r="3.01"/><circle class="cls-10" cx="216.84" cy="235.91" r="3.01"/><circle class="cls-10" cx="216.84" cy="248.6" r="3.01"/><circle class="cls-10" cx="216.84" cy="260.66" r="3.01"/><path class="cls-3" d="M123,468h18.69a2,2,0,0,1,2,2v2.63a0,0,0,0,1,0,0H121a0,0,0,0,1,0,0V470A2,2,0,0,1,123,468Z" transform="translate(264.73 912.4) rotate(-180)"/><path class="cls-5" d="M143.71,468s.38-5.84-2.41-5.84l-16.66-.55s-4.05.84-3.62,6.39h1.41c.26-4.6,3-4.6,3-4.6l15.16.5c1.38,0,1.22,4.1,1.22,4.1Z" transform="translate(0 -28.21)"/><path class="cls-3" d="M159.75,439.78h22.69a0,0,0,0,1,0,0v2.63a2,2,0,0,1-2,2H161.75a2,2,0,0,1-2-2v-2.63a0,0,0,0,1,0,0Z"/><path class="cls-5" d="M159.75,468s-.38-5.84,2.41-5.84l16.66-.55s4.05.84,3.62,6.39H181c-.26-4.6-3-4.6-3-4.6l-15.16.5c-1.38,0-1.22,4.1-1.22,4.1Z" transform="translate(0 -28.21)"/></svg>