<svg xmlns="http://www.w3.org/2000/svg" viewBox="0 0 19.84 23.5"><defs><style>.cls-1{opacity:0.54;}.cls-2{fill:none;stroke:#000;stroke-miterlimit:10;stroke-width:1.5px;}</style></defs><title>Asset 4</title><g id="Layer_2" data-name="Layer 2"><g id="bottom_nav"><g class="cls-1"><circle class="cls-2" cx="9.88" cy="5.68" r="4.93"/><path class="cls-2" d="M19,18a13.36,13.36,0,0,0-.18-1.43,11.11,11.11,0,0,0-.35-1.42A6.74,6.74,0,0,0,18,13.89a4.6,4.6,0,0,0-.81-1.06,3.4,3.4,0,0,0-1.11-.7,3.9,3.9,0,0,0-1.45-.26,1.59,1.59,0,0,0-.55.28l-1,.63a6.15,6.15,0,0,1-1.41.63,5.52,5.52,0,0,1-3.48,0,6.15,6.15,0,0,1-1.41-.63l-1-.63a1.59,1.59,0,0,0-.55-.28,3.9,3.9,0,0,0-1.45.26,3.4,3.4,0,0,0-1.11.7,4.59,4.59,0,0,0-.81,1.06,6.73,6.73,0,0,0-.56,1.27A11.11,11.11,0,0,0,1,16.59,13.36,13.36,0,0,0,.8,18q0,.66,0,1.35a3.26,3.26,0,0,0,1,2.48,3.51,3.51,0,0,0,2.53.91H15.61a3.51,3.51,0,0,0,2.53-.91,3.26,3.26,0,0,0,1-2.48Q19.09,18.67,19,18Z"/></g></g></g></svg>