<svg xmlns="http://www.w3.org/2000/svg" viewBox="0 0 18 16.07"><defs><style>.cls-1{fill:#303030;}</style></defs><title>Asset 49</title><g id="Layer_2" data-name="Layer 2"><g id="Post"><g id="comment_list_def" data-name="comment_list def"><g id="_5_comment" data-name="#5_comment"><g id="comment_toolbar"><path id="_Path_" data-name="&lt;Path&gt;" class="cls-1" d="M18,10.61a12.06,12.06,0,0,1-1.28,4.53l-.11.24-.14.3a1.13,1.13,0,0,1-.13.22.34.34,0,0,1-.28.17.29.29,0,0,1-.24-.1.37.37,0,0,1-.09-.25,2.05,2.05,0,0,1,0-.27,2.08,2.08,0,0,0,0-.24q.05-.68.05-1.24a8.54,8.54,0,0,0-.18-1.82,5.46,5.46,0,0,0-.49-1.39,3.5,3.5,0,0,0-.8-1,4.72,4.72,0,0,0-1.06-.7A5.75,5.75,0,0,0,12,8.63a12.73,12.73,0,0,0-1.55-.22q-.78-.06-1.76-.06H6.43v2.57a.64.64,0,0,1-1.09.45L.19,6.24a.63.63,0,0,1,0-.9L5.33.19a.63.63,0,0,1,.9,0,.62.62,0,0,1,.19.45V3.21H8.68q7.16,0,8.79,4A9.14,9.14,0,0,1,18,10.61Z"/></g></g></g></g></g></svg>