<svg xmlns="http://www.w3.org/2000/svg" viewBox="0 0 24 22.21"><defs><style>.cls-1{fill:#fff;}</style></defs><title>Asset 20</title><g id="Layer_2" data-name="Layer 2"><g id="Post"><g id="add_comment"><path id="_Path_" data-name="&lt;Path&gt;" class="cls-1" d="M23.88.09A.36.36,0,0,0,23.49,0L.21,10.85a.36.36,0,0,0,0,.65l6.59,3.23a.36.36,0,0,0,.37,0l6.41-4.79-5,5.17a.36.36,0,0,0-.1.28l.5,6.52a.36.36,0,0,0,.25.31l.11,0a.36.36,0,0,0,.27-.12L13.07,18l4.32,2.07a.36.36,0,0,0,.5-.22L24,.47A.36.36,0,0,0,23.88.09Z"/></g></g></g></svg>