<svg xmlns="http://www.w3.org/2000/svg" viewBox="0 0 22 19.35"><defs><style>.cls-1{opacity:0.54;}</style></defs><title>Asset 4</title><g id="Layer_2" data-name="Layer 2"><g id="discovery"><g id="Settings"><path class="cls-1" d="M5.87,13.43,11.66,10l0-6.71L5.8,0,0,3.39,0,10.1Zm-2-7.82L5.82,4.48,7.76,5.58V7.82L5.84,9,3.9,7.84Z"/><path class="cls-1" d="M17.59,13.47,22,10.9l0-5.11L17.54,3.26,13.13,5.84l0,5.11Zm-1.51-6,1.47-.86L19,7.51v1.7l-1.47.86-1.48-.84Z"/><path class="cls-1" d="M14.6,17.53V13.89l-3.15-1.82L8.3,13.89v3.64l3.15,1.82Zm-4.2-1.21V15.1l1-.61,1,.61v1.21l-1,.61Z"/></g></g></g></svg>